<mxfile host="app.diagrams.net" modified="2021-11-12T12:09:35.653Z" agent="5.0 (Windows NT 10.0; Win64; x64) AppleWebKit/537.36 (KHTML, like Gecko) Chrome/95.0.4638.69 Safari/537.36 Edg/95.0.1020.44" etag="yvj0OukhB7YW5LP43Wqk" version="15.7.3" type="github">
  <diagram id="JbGbZ968IAcG6xgg3cBA" name="Page-1">
    <mxGraphModel dx="1422" dy="762" grid="1" gridSize="10" guides="1" tooltips="1" connect="1" arrows="1" fold="1" page="1" pageScale="1" pageWidth="827" pageHeight="1169" math="0" shadow="0">
      <root>
        <mxCell id="0" />
        <mxCell id="1" parent="0" />
        <mxCell id="-HaUh47Lt7LNseCXVabz-1" value="kafka" style="swimlane;" vertex="1" parent="1">
          <mxGeometry x="530" y="275" width="160" height="140" as="geometry">
            <mxRectangle x="40" y="390" width="60" height="23" as="alternateBounds" />
          </mxGeometry>
        </mxCell>
        <mxCell id="-HaUh47Lt7LNseCXVabz-3" value="kafka服务" style="ellipse;whiteSpace=wrap;html=1;rounded=0;sketch=0;fontSize=14;" vertex="1" parent="-HaUh47Lt7LNseCXVabz-1">
          <mxGeometry x="20" y="50" width="120" height="60" as="geometry" />
        </mxCell>
        <mxCell id="-HaUh47Lt7LNseCXVabz-4" value="&lt;font style=&quot;font-size: 14px&quot;&gt;转换服务(过渡)&lt;br&gt;改造通讯&lt;br&gt;&lt;/font&gt;" style="rhombus;whiteSpace=wrap;html=1;fontStyle=1;startSize=23;" vertex="1" parent="1">
          <mxGeometry x="230" y="280" width="180" height="130" as="geometry" />
        </mxCell>
        <mxCell id="-HaUh47Lt7LNseCXVabz-5" value="其他服务" style="shape=ext;double=1;rounded=0;whiteSpace=wrap;html=1;" vertex="1" parent="1">
          <mxGeometry x="50" y="305" width="120" height="80" as="geometry" />
        </mxCell>
        <mxCell id="-HaUh47Lt7LNseCXVabz-6" value="" style="endArrow=classic;html=1;rounded=1;sketch=0;curved=0;" edge="1" parent="1">
          <mxGeometry width="50" height="50" relative="1" as="geometry">
            <mxPoint x="170" y="330" as="sourcePoint" />
            <mxPoint x="240" y="330" as="targetPoint" />
          </mxGeometry>
        </mxCell>
        <mxCell id="-HaUh47Lt7LNseCXVabz-9" value="&lt;font color=&quot;#000000&quot;&gt;TCP&lt;/font&gt;" style="edgeLabel;html=1;align=center;verticalAlign=middle;resizable=0;points=[];" vertex="1" connectable="0" parent="-HaUh47Lt7LNseCXVabz-6">
          <mxGeometry x="-0.4286" y="-3" relative="1" as="geometry">
            <mxPoint x="10" y="-3" as="offset" />
          </mxGeometry>
        </mxCell>
        <mxCell id="-HaUh47Lt7LNseCXVabz-7" value="" style="endArrow=classic;html=1;rounded=1;sketch=0;curved=0;" edge="1" parent="1">
          <mxGeometry width="50" height="50" relative="1" as="geometry">
            <mxPoint x="240" y="370" as="sourcePoint" />
            <mxPoint x="170" y="370" as="targetPoint" />
          </mxGeometry>
        </mxCell>
        <mxCell id="-HaUh47Lt7LNseCXVabz-10" value="&lt;font color=&quot;#000000&quot;&gt;TCP&lt;/font&gt;" style="edgeLabel;html=1;align=center;verticalAlign=middle;resizable=0;points=[];" vertex="1" connectable="0" parent="1">
          <mxGeometry x="220" y="340" as="geometry">
            <mxPoint x="-14" y="30" as="offset" />
          </mxGeometry>
        </mxCell>
        <mxCell id="-HaUh47Lt7LNseCXVabz-11" value="" style="endArrow=classic;html=1;rounded=1;sketch=0;curved=0;exitX=0.933;exitY=0.392;exitDx=0;exitDy=0;exitPerimeter=0;" edge="1" parent="1" source="-HaUh47Lt7LNseCXVabz-4">
          <mxGeometry width="50" height="50" relative="1" as="geometry">
            <mxPoint x="410" y="330" as="sourcePoint" />
            <mxPoint x="530" y="330" as="targetPoint" />
          </mxGeometry>
        </mxCell>
        <mxCell id="-HaUh47Lt7LNseCXVabz-13" value="生产数据" style="edgeLabel;html=1;align=center;verticalAlign=middle;resizable=0;points=[];" vertex="1" connectable="0" parent="-HaUh47Lt7LNseCXVabz-11">
          <mxGeometry x="-0.3143" relative="1" as="geometry">
            <mxPoint x="47" y="-215" as="offset" />
          </mxGeometry>
        </mxCell>
        <mxCell id="-HaUh47Lt7LNseCXVabz-12" value="" style="endArrow=classic;html=1;rounded=1;sketch=0;curved=0;" edge="1" parent="1">
          <mxGeometry width="50" height="50" relative="1" as="geometry">
            <mxPoint x="530" y="360" as="sourcePoint" />
            <mxPoint x="400" y="360" as="targetPoint" />
          </mxGeometry>
        </mxCell>
        <mxCell id="-HaUh47Lt7LNseCXVabz-14" value="订阅消费" style="edgeLabel;html=1;align=center;verticalAlign=middle;resizable=0;points=[];" vertex="1" connectable="0" parent="1">
          <mxGeometry x="480" y="166" as="geometry">
            <mxPoint x="6" y="-4" as="offset" />
          </mxGeometry>
        </mxCell>
        <mxCell id="-HaUh47Lt7LNseCXVabz-15" value="网关服务" style="swimlane;startSize=20;horizontal=1;containerType=tree;fillColor=#FFFFFF;strokeColor=#000000;fontColor=#000000;swimlaneFillColor=none;" vertex="1" parent="1">
          <mxGeometry x="270" y="86" width="170" height="130" as="geometry" />
        </mxCell>
        <mxCell id="-HaUh47Lt7LNseCXVabz-16" value="转发/订阅" style="ellipse;whiteSpace=wrap;html=1;align=center;treeFolding=1;treeMoving=1;newEdgeStyle={&quot;edgeStyle&quot;:&quot;entityRelationEdgeStyle&quot;,&quot;startArrow&quot;:&quot;none&quot;,&quot;endArrow&quot;:&quot;none&quot;,&quot;segment&quot;:10,&quot;curved&quot;:1};" vertex="1" parent="-HaUh47Lt7LNseCXVabz-15">
          <mxGeometry x="30" y="45" width="100" height="40" as="geometry" />
        </mxCell>
        <mxCell id="-HaUh47Lt7LNseCXVabz-17" value="POS机器" style="shape=step;perimeter=stepPerimeter;whiteSpace=wrap;html=1;fixedSize=1;" vertex="1" parent="1">
          <mxGeometry x="60" y="166" width="120" height="50" as="geometry" />
        </mxCell>
        <mxCell id="-HaUh47Lt7LNseCXVabz-19" value="车载端" style="shape=step;perimeter=stepPerimeter;whiteSpace=wrap;html=1;fixedSize=1;" vertex="1" parent="1">
          <mxGeometry x="60" y="86" width="120" height="50" as="geometry" />
        </mxCell>
        <mxCell id="-HaUh47Lt7LNseCXVabz-20" value="" style="endArrow=classic;startArrow=classic;html=1;rounded=0;labelBackgroundColor=#283618;strokeColor=#DDA15E;fontColor=#FEFAE0;" edge="1" parent="1">
          <mxGeometry width="50" height="50" relative="1" as="geometry">
            <mxPoint x="180" y="190.5" as="sourcePoint" />
            <mxPoint x="270" y="191" as="targetPoint" />
          </mxGeometry>
        </mxCell>
        <mxCell id="-HaUh47Lt7LNseCXVabz-21" value="" style="endArrow=classic;startArrow=classic;html=1;rounded=0;labelBackgroundColor=#283618;strokeColor=#DDA15E;fontColor=#FEFAE0;" edge="1" parent="1">
          <mxGeometry width="50" height="50" relative="1" as="geometry">
            <mxPoint x="180" y="110.5" as="sourcePoint" />
            <mxPoint x="270" y="111" as="targetPoint" />
          </mxGeometry>
        </mxCell>
        <mxCell id="-HaUh47Lt7LNseCXVabz-29" value="kafka" style="swimlane;" vertex="1" parent="1">
          <mxGeometry x="540" y="86" width="160" height="124" as="geometry">
            <mxRectangle x="40" y="390" width="60" height="23" as="alternateBounds" />
          </mxGeometry>
        </mxCell>
        <mxCell id="-HaUh47Lt7LNseCXVabz-30" value="kafka服务" style="ellipse;whiteSpace=wrap;html=1;rounded=0;sketch=0;fontSize=14;" vertex="1" parent="-HaUh47Lt7LNseCXVabz-29">
          <mxGeometry x="20" y="50" width="120" height="60" as="geometry" />
        </mxCell>
        <mxCell id="-HaUh47Lt7LNseCXVabz-31" value="" style="endArrow=classic;html=1;rounded=1;sketch=0;curved=0;exitX=0.933;exitY=0.392;exitDx=0;exitDy=0;exitPerimeter=0;" edge="1" parent="1">
          <mxGeometry width="50" height="50" relative="1" as="geometry">
            <mxPoint x="440" y="130" as="sourcePoint" />
            <mxPoint x="540" y="129" as="targetPoint" />
          </mxGeometry>
        </mxCell>
        <mxCell id="-HaUh47Lt7LNseCXVabz-33" value="" style="endArrow=classic;html=1;rounded=1;sketch=0;curved=0;" edge="1" parent="1">
          <mxGeometry width="50" height="50" relative="1" as="geometry">
            <mxPoint x="544" y="180" as="sourcePoint" />
            <mxPoint x="440" y="180" as="targetPoint" />
          </mxGeometry>
        </mxCell>
        <mxCell id="-HaUh47Lt7LNseCXVabz-34" value="生产数据" style="edgeLabel;html=1;align=center;verticalAlign=middle;resizable=0;points=[];" vertex="1" connectable="0" parent="1">
          <mxGeometry x="460" y="320" as="geometry" />
        </mxCell>
        <mxCell id="-HaUh47Lt7LNseCXVabz-35" value="订阅消费" style="edgeLabel;html=1;align=center;verticalAlign=middle;resizable=0;points=[];" vertex="1" connectable="0" parent="1">
          <mxGeometry x="454" y="354" as="geometry">
            <mxPoint x="6" y="-4" as="offset" />
          </mxGeometry>
        </mxCell>
      </root>
    </mxGraphModel>
  </diagram>
</mxfile>
